HIERARCHY
ROOT pelvis
{
  OFFSET 0 100 0
  CHANNELS 6 Xposition Yposition Zposition Zrotation Xrotation Yrotation
  JOINT pelvis_right_femur
  {
    OFFSET -10.78128 -3.44521 -0.5502486
    CHANNELS 3 Zrotation Xrotation Yrotation
    JOINT right_femur_tibia
    {
      OFFSET -0.8047443 -44.0398 -0.1307829
      CHANNELS 3 Zrotation Xrotation Yrotation
      JOINT right_tibia_foot
      {
        OFFSET 3.006224 -47.83518 -5
        CHANNELS 3 Zrotation Xrotation Yrotation
        End Site
        {
          OFFSET 0 -5 15
        }
      }
    }
  }
  JOINT pelvis_left_femur
  {
    OFFSET 10.78128 -3.44521 -0.5502486
    CHANNELS 3 Zrotation Xrotation Yrotation
    JOINT left_femur_tibia
    {
      OFFSET 0.8047443 -44.0398 -0.1307829
      CHANNELS 3 Zrotation Xrotation Yrotation
      JOINT left_tibia_foot
      {
        OFFSET -4.370144 -48.10324 -4.275266
        CHANNELS 3 Zrotation Xrotation Yrotation
        End Site
        {
          OFFSET 0 -5 15
        }
      }
    }
  }
  JOINT pelvis_spine1
  {
    OFFSET 0 6.468898 -3.129235
    CHANNELS 3 Zrotation Xrotation Yrotation
    JOINT spine1
    {
      OFFSET 0 23.15396 4.99043
      CHANNELS 3 Zrotation Xrotation Yrotation
      JOINT spine2
      {
        OFFSET 0 20.79997 -5.064912
        CHANNELS 3 Zrotation Xrotation Yrotation
        JOINT neck
        {
          OFFSET 0 14.38658 9.616178
          CHANNELS 3 Zrotation Xrotation Yrotation
          End Site
          {
            OFFSET 0 20 0
          }
        }
      }
      JOINT right_manubrium
      {
        OFFSET -5.722621 16.35077 3.967754
        CHANNELS 3 Zrotation Xrotation Yrotation
        JOINT right_clavicle
        {
          OFFSET -13.16364 1.694482 -4.693211
          CHANNELS 3 Zrotation Xrotation Yrotation
          JOINT right_humerus
          {
            OFFSET -28.5034 -0.3100689 -2.792744
            CHANNELS 3 Zrotation Xrotation Yrotation
            JOINT right_radius
            {
              OFFSET -25.15693 0.02248979 -1.271978
              CHANNELS 3 Zrotation Xrotation Yrotation
              End Site
              {
                OFFSET -15 0 0
              }
            }
          }
        }
      }
      JOINT left_manubrium
      {
        OFFSET 5.722621 16.35077 3.967754
        CHANNELS 3 Zrotation Xrotation Yrotation
        JOINT left_clavicle
        {
          OFFSET 13.16364 1.694482 -4.693211
          CHANNELS 3 Zrotation Xrotation Yrotation
          JOINT left_humerus
          {
            OFFSET 29.39168 -1.063119 -2.237045
            CHANNELS 3 Zrotation Xrotation Yrotation
            JOINT left_radius
            {
              OFFSET 24.59957 -0.9528479 0.9047498
              CHANNELS 3 Zrotation Xrotation Yrotation
              End Site
              {
                OFFSET 15 -0 -0
              }
            }
          }
        }
      }
    }
  }
}
MOTION
Frames: 13
Frame Time: 0.0416666666667
19.99596 95.51075 236.4338 1.1902 -8.475158 -2.306309 0.8586524 13.51087 3.361448 3.280983e-09 36.06371 -2.991699e-09 -2.858625 -8.734768 -2.702928 -3.145622 -14.44299 -9.822398 5.230158e-09 17.35332 -1.320278e-09 -2.802836 -9.315555 20.23831 -2.632884 -0.381086 6.139059 -0.3829132 10.13784 -3.769974 1.57542 23.53541 5.649079 2.168319 -18.54461 7.324111 0.990559 -21.79244 11.05635 84.67124 25.26503 -8.655871 1.806379e-10 1.165187e-10 20.87885 -23.80324 10.76122 14.13159 3.32895 -15.85851 -3.754308 -95.0798 23.9821 26.54494 1.496146e-09 -1.301594e-09 -7.43766 -1.865564 9.927932 14.88205
20.65535 95.55602 241.943 1.312556 -8.850787 -2.120296 0.421999 10.93172 2.945355 4.123618e-09 39.0919 -4.198204e-09 -2.783756 -6.833869 -3.155432 -3.761156 -11.15214 -10.42698 6.457639e-09 14.94841 -4.809986e-09 -2.598854 -10.67319 20.23223 -2.844383 -0.3589533 5.58788 -0.4216492 10.0804 -3.926581 1.653051 23.77105 5.787913 2.184537 -18.45205 7.557396 0.8122547 -21.32161 10.87896 85.75005 24.73602 -9.417152 -1.967567e-10 2.598467e-10 20.05021 -24.06487 10.57122 14.06016 3.517856 -16.07888 -4.077568 -94.41059 24.12646 24.96735 2.350833e-09 -9.064996e-10 -7.938193 -1.642046 10.07181 14.54842
21.30207 95.63162 247.4374 1.442725 -9.007299 -1.772763 0.02140399 7.406502 2.521125 4.885108e-09 41.83215 -5.3012e-09 -2.735625 -4.945731 -3.629988 -4.443328 -7.127477 -11.19927 7.393731e-09 12.40327 -8.386542e-09 -2.293062 -12.28391 20.1801 -3.069712 -0.375604 4.961843 -0.3792249 9.994508 -4.20427 1.70943 23.95778 5.980405 2.230432 -18.47701 7.829491 0.7487348 -20.72519 10.71189 86.86028 24.44026 -10.49172 -5.589933e-10 4.002309e-10 18.98638 -24.01939 10.39459 13.79701 3.773725 -16.43796 -4.370259 -93.59643 24.37474 23.10707 3.122803e-09 -4.918357e-10 -8.843621 -1.291591 10.30713 14.09074
21.9181 95.72591 252.8549 1.537047 -8.841104 -1.298478 -0.2168075 3.044075 2.126559 5.220652e-09 43.39625 -5.913292e-09 -2.767918 -3.354998 -4.07096 -5.061366 -2.659485 -11.99634 7.744748e-09 10.42461 -1.135888e-08 -1.940084 -13.9136 19.97765 -3.245939 -0.4362219 4.316106 -0.2214397 9.883645 -4.613922 1.727546 24.00771 6.192529 2.30124 -18.62104 8.081065 0.8228898 -19.99338 10.5701 87.75889 24.45173 -11.87678 -8.488893e-10 5.114385e-10 17.64817 -23.51886 10.2625 13.26183 4.073886 -16.95248 -4.592575 -92.47152 24.68374 20.99298 3.633154e-09 -1.006835e-10 -10.25214 -0.7859356 10.61388 13.46072
22.4974 95.81435 258.1436 1.589874 -8.411199 -0.7336007 -0.3025965 -1.401114 1.826164 5.094782e-09 43.7743 -5.973126e-09 -2.854624 -2.22943 -4.410153 -5.536322 1.549051 -12.71125 7.638659e-09 9.081808 -1.349083e-08 -1.59105 -15.33073 19.66703 -3.360266 -0.5267251 3.738925 0.007237734 9.748026 -5.066228 1.711211 23.90377 6.386642 2.379458 -18.82159 8.273552 1.003577 -19.22897 10.44977 88.22778 24.71557 -13.27981 -1.035864e-09 5.82061e-10 16.26392 -22.67392 10.16476 12.55983 4.366005 -17.48971 -4.712045 -91.11709 24.99036 18.91969 3.859124e-09 2.162608e-10 -11.84596 -0.2231274 10.92007 12.76579
23.02137 95.88498 263.2817 1.58044 -7.797027 -0.1255803 -0.193947 -5.836731 1.603847 4.489066e-09 42.81758 -5.485298e-09 -3.027849 -1.532297 -4.671642 -5.847348 5.439347 -13.26687 7.099598e-09 8.768532 -1.46118e-08 -1.312244 -16.45379 19.20233 -3.385964 -0.6329785 3.235059 0.299689 9.618063 -5.557235 1.667284 23.67763 6.54296 2.457564 -19.0572 8.390573 1.239973 -18.44354 10.36027 88.41908 25.14982 -14.75199 -1.136327e-09 6.124433e-10 14.79683 -21.57483 10.10833 11.71686 4.638855 -18.08543 -4.768818 -89.56636 25.22287 16.86544 3.809553e-09 4.83416e-10 -13.65794 0.4022384 11.2148 11.98809
23.46658 95.93562 268.2621 1.501247 -7.059467 0.4799251 0.1076917 -10.16272 1.458508 3.518939e-09 40.5945 -4.58146e-09 -3.287769 -1.204413 -4.868772 -6.005436 8.967943 -13.636 6.191648e-09 9.539625 -1.472079e-08 -1.131455 -17.25394 18.56848 -3.318384 -0.7454852 2.802145 0.6410903 9.500557 -6.070265 1.602405 23.34276 6.649811 2.527839 -19.29705 8.425048 1.497113 -17.64068 10.29473 88.36358 25.68816 -16.26576 -1.166229e-09 6.059087e-10 13.24709 -20.28801 10.08142 10.76045 4.883297 -18.72777 -4.784152 -87.80668 25.34016 14.81922 3.519849e-09 7.212384e-10 -15.64454 1.078697 11.48023 11.12939
23.81194 95.97063 273.1325 1.367391 -6.372996 1.043055 0.5804339 -14.09594 1.365411 2.425675e-09 37.45785 -3.537412e-09 -3.635942 -1.129355 -5.046659 -6.027763 11.99746 -13.77517 4.999925e-09 11.54867 -1.384513e-08 -1.102701 -17.71243 17.82939 -3.160732 -0.8420324 2.456195 0.9963826 9.45306 -6.582094 1.532564 23.02951 6.70611 2.588251 -19.54296 8.396552 1.705531 -16.91591 10.28654 88.49665 26.1837 -17.85754 -1.162741e-09 5.761926e-10 11.70224 -19.0753 10.10701 9.823587 5.08827 -19.45262 -4.822352 -86.23745 25.29977 12.94299 3.087448e-09 9.523223e-10 -17.72789 1.7642 11.7202 10.25814
24.05033 96.00008 277.8949 1.197276 -5.678327 1.541177 1.129855 -17.60754 1.347675 1.361109e-09 33.84208 -2.491654e-09 -3.99772 -1.248817 -5.170865 -5.974204 14.5543 -13.78379 3.629672e-09 13.97018 -1.240178e-08 -1.135511 -17.92304 17.02407 -2.959489 -0.9319291 2.17299 1.344296 9.400455 -7.050187 1.457723 22.64728 6.717546 2.6307 -19.73428 8.309071 1.896238 -16.21407 10.27233 88.34063 26.67648 -19.2805 -1.123398e-09 5.267331e-10 10.22017 -17.83705 10.12115 8.886075 5.252419 -20.10891 -4.831122 -84.53634 25.15799 11.17806 2.565038e-09 1.167126e-09 -19.69855 2.419092 11.8975 9.397329
24.185 96.02496 282.5982 1.028127 -5.149211 1.968065 1.68199 -20.49192 1.341243 4.908908e-10 30.32407 -1.652291e-09 -4.353605 -1.377514 -5.294174 -5.877849 16.61495 -13.65312 2.217849e-09 16.70246 -1.065035e-08 -1.253703 -17.94288 16.24734 -2.737643 -0.9937639 1.948467 1.644764 9.390524 -7.451362 1.396035 22.33158 6.69458 2.655735 -19.87142 8.197713 2.005478 -15.61829 10.27648 88.31283 27.00591 -20.55715 -1.094916e-09 4.80838e-10 8.888138 -16.83845 10.14675 8.08596 5.372002 -20.71994 -4.876335 -83.08409 24.91182 9.651677 2.089282e-09 1.377779e-09 -21.45764 2.997623 12.02505 8.620722
24.2359 96.05251 287.3083 0.8979326 -4.882366 2.327297 2.14686 -22.51009 1.302818 -1.041938e-10 27.44647 -1.117674e-09 -4.662833 -1.409649 -5.428874 -5.769453 18.07737 -13.4048 9.484904e-10 19.40564 -8.910326e-09 -1.444415 -17.82178 15.59651 -2.526909 -1.016028 1.787349 1.860712 9.435636 -7.749037 1.35919 22.15159 6.646819 2.662387 -19.94181 8.0883 2.004836 -15.1914 10.30241 88.53771 27.08085 -21.5937 -1.09978e-09 4.542879e-10 7.827387 -16.241 10.19293 7.527683 5.439615 -21.24355 -4.978832 -82.0942 24.60419 8.495428 1.757402e-09 1.567755e-09 -22.83684 3.441521 12.10226 8.009336
24.24227 96.08835 292.1409 0.8663865 -5.07901 2.646311 2.38728 -23.48508 1.124795 -2.955995e-10 26.06286 -1.073157e-09 -4.887847 -1.083676 -5.638788 -5.699485 18.9961 -13.06708 1.663905e-10 21.76921 -7.749263e-09 -1.719199 -17.6924 15.21028 -2.370718 -0.9756583 1.672138 1.942957 9.587197 -7.919072 1.370622 22.27777 6.598299 2.655543 -19.95459 8.0378 1.827165 -15.02964 10.37599 89.52564 26.69505 -22.41357 -1.19765e-09 4.824838e-10 7.148066 -16.36112 10.2923 7.380185 5.457392 -21.70462 -5.21564 -82.03028 24.28452 7.839282 1.756408e-09 1.73685e-09 -23.71092 3.696286 12.15677 7.657441
24.23919 96.16028 297.1581 0.894174 -5.545582 2.915666 2.527698 -23.24395 0.9097141 -2.782166e-10 25.35807 -1.243715e-09 -5.046297 -0.7574281 -5.822954 -5.593067 18.98381 -12.57693 -3.943253e-10 24.05141 -6.56396e-09 -2.06674 -17.3297 14.98977 -2.225583 -0.8912678 1.664018 1.921587 9.793539 -7.944741 1.407186 22.53108 6.51328 2.624656 -19.88164 7.976565 1.538389 -15.09144 10.47332 90.60987 26.05939 -22.81605 -1.308753e-09 5.233029e-10 6.866641 -16.92193 10.42728 7.525877 5.400235 -22.01003 -5.488964 -82.4735 23.95274 7.713448 1.870385e-09 1.839308e-09 -24.04584 3.760921 12.14454 7.536248
